<?xml version="1.0" encoding="UTF-8" standalone="no"?>
<svg width="433px" height="190px" viewBox="0 0 433 190" version="1.1" xmlns="http://www.w3.org/2000/svg" xmlns:xlink="http://www.w3.org/1999/xlink">
    <!-- Generator: Sketch 3.8.1 (29687) - http://www.bohemiancoding.com/sketch -->
    <title>Slice 1</title>
    <desc>Created with Sketch.</desc>
    <defs>
        <polygon id="path-1" points="216.49995 189.056 0 189.056 0 0 216.49995 0 432.9999 0 432.9999 189.056"></polygon>
    </defs>
    <g id="Page-1" stroke="none" stroke-width="1" fill="none" fill-rule="evenodd">
        <g>
            <mask id="mask-2" fill="white">
                <use xlink:href="#path-1"></use>
            </mask>
            <g id="Clip-2"></g>
            <path d="M338.4719,175.792 C293.5909,175.792 257.2079,139.409 257.2079,94.528 C257.2079,49.647 293.5909,13.264 338.4719,13.264 C383.3529,13.264 419.7359,49.647 419.7359,94.528 C419.7359,139.409 383.3529,175.792 338.4719,175.792 M216.4999,27.528 C221.7469,27.528 225.9999,31.781 225.9999,37.028 C225.9999,42.275 221.7469,46.528 216.4999,46.528 C211.2529,46.528 206.9999,42.275 206.9999,37.028 C206.9999,31.781 211.2529,27.528 216.4999,27.528 M94.5279,175.792 C49.6469,175.792 13.2639,139.409 13.2639,94.528 C13.2639,49.647 49.6469,13.264 94.5279,13.264 C139.4089,13.264 175.7919,49.647 175.7919,94.528 C175.7919,139.409 139.4089,175.792 94.5279,175.792 M338.4719,0 C307.4849,0 279.9809,14.91 262.7419,37.946 L242.4429,37.946 C239.6209,26.233 229.0799,17.528 216.4999,17.528 C203.9199,17.528 193.3799,26.233 190.5569,37.946 L170.2589,37.946 C153.0189,14.91 125.5149,0 94.5279,0 C42.3219,0 -0.0001,42.321 -0.0001,94.528 C-0.0001,146.734 42.3219,189.056 94.5279,189.056 C146.7349,189.056 189.0559,146.734 189.0559,94.528 C189.0559,90.463 188.7989,86.458 188.3019,82.528 L191.6309,82.528 C194.0739,76.263 198.8149,71.152 204.8169,68.222 C208.3459,69.943 212.3099,70.911 216.4999,70.911 C220.6909,70.911 224.6539,69.943 228.1839,68.222 C234.1849,71.152 238.9259,76.263 241.3689,82.528 L244.6989,82.528 C244.2009,86.458 243.9439,90.463 243.9439,94.528 C243.9439,146.734 286.2659,189.056 338.4719,189.056 C390.6779,189.056 432.9999,146.734 432.9999,94.528 C432.9999,42.321 390.6779,0 338.4719,0" id="Fill-1" fill="#3B97D3" mask="url(#mask-2)"></path>
        </g>
    </g>
</svg>